<svg width="48" height="48" viewBox="0 0 48 48" xmlns="http://www.w3.org/2000/svg">
  <defs>
    <style>
      .rust-bg { fill: #CE422B; }
      .rust-gear { fill: #000000; }
      .rust-inner { fill: #CE422B; }
    </style>
  </defs>
  
  <!-- Background -->
  <rect width="48" height="48" rx="8" fill="#CE422B"/>
  
  <!-- Rust official gear logo -->
  <g transform="translate(24,24)">
    <!-- Outer gear teeth (official Rust logo style) -->
    <g fill="#000000">
      <!-- Top teeth -->
      <rect x="-1" y="-20" width="2" height="4" rx="1"/>
      <rect x="-1" y="16" width="2" height="4" rx="1"/>
      <rect x="-20" y="-1" width="4" height="2" rx="1"/>
      <rect x="16" y="-1" width="4" height="2" rx="1"/>
      
      <!-- Diagonal teeth -->
      <rect x="-15" y="-15" width="3" height="3" rx="1.5" transform="rotate(45 -15 -15)"/>
      <rect x="12" y="-15" width="3" height="3" rx="1.5" transform="rotate(45 12 -15)"/>
      <rect x="-15" y="12" width="3" height="3" rx="1.5" transform="rotate(45 -15 12)"/>
      <rect x="12" y="12" width="3" height="3" rx="1.5" transform="rotate(45 12 12)"/>
    </g>
    
    <!-- Main gear body -->
    <circle cx="0" cy="0" r="14" fill="#000000"/>
    
    <!-- Inner gear (white/light) -->
    <circle cx="0" cy="0" r="10" fill="#FFFFFF"/>
    
    <!-- Center gear -->
    <circle cx="0" cy="0" r="6" fill="#000000"/>
    
    <!-- Center hole -->
    <circle cx="0" cy="0" r="3" fill="#CE422B"/>
    
    <!-- Small decorative dots (Rust logo style) -->
    <circle cx="0" cy="-8" r="1" fill="#CE422B"/>
    <circle cx="0" cy="8" r="1" fill="#CE422B"/>
    <circle cx="-8" cy="0" r="1" fill="#CE422B"/>
    <circle cx="8" cy="0" r="1" fill="#CE422B"/>
  </g>
</svg>